<?xml version="1.0" standalone="no"?>
<!DOCTYPE svg PUBLIC "-//W3C//DTD SVG 20010904//EN"
 "http://www.w3.org/TR/2001/REC-SVG-20010904/DTD/svg10.dtd">
<svg version="1.0" xmlns="http://www.w3.org/2000/svg"
 width="1280.000000pt" height="1131.000000pt" viewBox="0 0 1280.000000 1131.000000"
 preserveAspectRatio="xMidYMid meet">
<metadata>
Created by potrace 1.15, written by Peter Selinger 2001-2017
</metadata>
<g transform="translate(0.000000,1131.000000) scale(0.100000,-0.100000)"
fill="#ffeb3b" stroke="none">
<path d="M3505 11300 c-284 -42 -518 -215 -653 -485 -75 -150 -120 -307 -154
-530 -17 -119 -18 -618 0 -780 58 -533 193 -1120 402 -1758 38 -118 70 -219
70 -224 0 -6 -17 -14 -37 -17 -129 -23 -409 -85 -598 -132 -599 -149 -1051
-307 -1460 -509 -320 -158 -544 -307 -720 -480 -560 -549 -450 -1193 289
-1694 529 -358 1372 -664 2386 -866 74 -15 136 -28 138 -30 2 -2 -33 -112 -77
-246 -227 -690 -359 -1287 -402 -1823 -17 -219 -7 -607 20 -761 93 -526 308
-817 686 -931 80 -24 107 -27 245 -28 129 -1 173 3 260 22 465 105 964 401
1560 927 188 166 584 563 779 783 84 94 157 172 161 172 4 0 77 -78 161 -173
191 -214 589 -615 769 -773 559 -493 1040 -793 1457 -908 150 -41 223 -51 368
-51 171 0 249 17 390 85 300 145 471 425 552 905 15 91 18 165 18 430 0 332
-5 398 -51 705 -65 423 -192 931 -364 1449 -39 117 -69 215 -68 216 2 2 64 15
138 29 990 195 1859 510 2386 867 739 501 849 1146 289 1694 -454 444 -1390
835 -2600 1085 -115 24 -211 44 -213 45 -1 1 30 98 69 216 209 636 335 1178
401 1724 20 171 17 732 -5 860 -58 332 -152 558 -305 725 -63 69 -191 163
-267 195 -525 225 -1252 -65 -2170 -865 -175 -153 -616 -595 -799 -802 -82
-93 -152 -168 -156 -168 -3 0 -74 75 -155 168 -184 207 -626 649 -800 802
-540 473 -1040 780 -1450 890 -165 44 -356 60 -490 40z m295 -335 c572 -93
1409 -723 2274 -1712 l107 -122 -135 -169 c-254 -320 -585 -774 -800 -1097
l-66 -101 -178 -13 c-399 -28 -938 -89 -1325 -150 -159 -24 -179 -26 -186 -12
-5 9 -43 120 -84 246 -491 1499 -538 2634 -126 3010 130 118 294 156 519 120z
m5482 1 c105 -23 175 -61 254 -140 84 -85 131 -165 178 -306 180 -543 62
-1501 -329 -2690 l-85 -256 -112 18 c-160 26 -512 73 -723 97 -212 25 -738 71
-799 71 l-42 0 -116 173 c-220 327 -505 716 -755 1030 l-134 168 112 127 c395
450 827 868 1169 1133 569 441 1056 644 1382 575z m-2785 -2218 c180 -226 585
-773 686 -928 l16 -25 -799 0 c-529 0 -796 3 -792 10 13 21 199 285 276 390
197 272 503 665 516 665 4 0 48 -51 97 -112z m853 -1296 l85 -7 118 -185 c165
-258 407 -665 552 -925 149 -268 358 -666 358 -680 0 -14 -211 -415 -358 -680
-146 -262 -388 -667 -552 -925 l-118 -185 -125 -9 c-163 -12 -1658 -12 -1820
0 l-124 9 -93 145 c-285 444 -608 1002 -856 1480 l-86 164 71 136 c307 584
609 1108 893 1544 l75 116 52 1 c29 1 132 5 228 9 200 9 1572 2 1700 -8z
m-2402 -40 c-1 -4 -61 -101 -131 -215 -206 -336 -416 -704 -613 -1074 -27 -51
-52 -93 -55 -93 -21 0 -552 1220 -537 1235 13 13 689 98 1068 134 225 22 273
24 268 13z m3152 -12 c433 -40 1062 -118 1079 -135 14 -15 -286 -727 -463
-1100 l-67 -140 -56 105 c-190 358 -451 813 -644 1124 -55 87 -99 160 -99 162
0 6 24 5 250 -16z m-4740 -377 c147 -379 308 -749 505 -1164 l97 -202 -93
-191 c-183 -379 -364 -792 -504 -1151 -43 -110 -81 -203 -84 -207 -3 -4 -91
11 -196 32 -999 201 -1818 502 -2296 846 -104 75 -254 217 -315 297 -226 301
-184 584 133 887 369 354 1085 670 2048 906 167 41 591 132 621 133 6 1 43
-83 84 -186z m6440 130 c1109 -230 1980 -587 2393 -983 313 -300 357 -571 142
-875 -55 -78 -219 -234 -324 -309 -484 -346 -1299 -646 -2296 -847 -104 -21
-193 -35 -196 -31 -3 4 -41 97 -84 207 -141 361 -320 769 -504 1151 l-93 191
55 109 c183 365 462 1008 616 1416 12 32 -18 35 291 -29z m-5626 -1910 c79
-166 436 -793 645 -1132 72 -118 131 -216 131 -218 0 -21 -1305 129 -1328 152
-6 6 44 139 150 393 122 295 368 841 379 842 3 0 13 -17 23 -37z m4543 -100
c179 -378 476 -1083 461 -1098 -14 -14 -556 -84 -918 -119 -345 -33 -410 -39
-410 -33 0 3 44 76 98 164 201 322 473 796 638 1110 32 62 60 113 62 113 2 0
33 -62 69 -137z m667 -1663 c391 -1185 508 -2142 330 -2689 -46 -141 -93 -222
-178 -307 -137 -136 -295 -178 -536 -139 -571 93 -1392 710 -2269 1707 l-112
127 135 169 c249 313 593 785 800 1098 l67 101 107 7 c277 18 704 61 1047 106
131 17 515 75 522 79 1 1 40 -116 87 -259z m-5678 225 c357 -56 929 -121 1296
-146 l177 -13 67 -100 c205 -310 562 -799 813 -1114 l122 -153 -112 -127
c-883 -1002 -1697 -1614 -2273 -1707 -240 -39 -396 3 -536 144 -85 86 -139
183 -184 331 -145 482 -67 1294 220 2280 42 143 191 605 201 623 7 11 39 9
209 -18z m3486 -200 c-9 -17 -140 -202 -235 -335 -190 -264 -543 -720 -557
-720 -22 0 -649 833 -783 1040 l-16 25 799 0 c529 0 796 -3 792 -10z"/>
<path d="M6275 6346 c-253 -50 -462 -231 -542 -470 -24 -71 -27 -97 -27 -216
-1 -123 2 -143 28 -224 73 -223 266 -403 496 -463 87 -23 253 -23 340 0 167
44 326 158 422 306 132 202 144 475 31 701 -56 112 -189 243 -303 299 -47 22
-112 48 -145 56 -87 22 -218 27 -300 11z"/>
</g>
</svg>
